<?xml version="1.0" standalone="no"?>
<!DOCTYPE svg PUBLIC "-//W3C//DTD SVG 20010904//EN"
 "http://www.w3.org/TR/2001/REC-SVG-20010904/DTD/svg10.dtd">
<svg version="1.0" xmlns="http://www.w3.org/2000/svg"
 width="500.000000pt" height="500.000000pt" viewBox="0 0 500.000000 500.000000"
 preserveAspectRatio="xMidYMid meet">

<g transform="translate(0.000000,500.000000) scale(0.100000,-0.100000)"
fill="#000000" stroke="none">
<path d="M0 2500 l0 -2500 2500 0 2500 0 0 2500 0 2500 -2500 0 -2500 0 0
-2500z m3056 2116 c22 -22 36 -47 40 -72 l6 -39 276 -112 c153 -61 333 -135
402 -164 388 -161 383 -159 403 -138 74 79 214 61 263 -33 22 -42 22 -114 0
-156 l-17 -32 146 -190 146 -190 55 0 c101 0 154 -51 154 -147 0 -47 -4 -58
-35 -92 -23 -25 -49 -42 -73 -48 -35 -8 -38 -12 -55 -73 -22 -80 -96 -364
-192 -735 -20 -77 -41 -145 -47 -152 -8 -10 -78 -13 -304 -13 l-294 0 -21 -45
c-19 -40 -94 -105 -121 -105 -4 0 -8 -60 -8 -133 0 -115 -2 -136 -17 -149 -38
-32 -426 -278 -440 -278 -7 0 -76 15 -151 34 -284 69 -295 71 -307 51 -40 -68
-69 -95 -130 -126 -59 -29 -71 -31 -128 -26 l-62 5 -62 -136 c-67 -149 -386
-843 -451 -985 -42 -90 -61 -108 -87 -87 -13 11 -15 80 -15 490 l0 478 -24 6
c-14 3 -39 18 -56 32 l-31 27 -271 -132 c-255 -124 -274 -132 -317 -127 -25 3
-82 8 -126 12 -179 14 -378 42 -391 56 -13 12 -13 36 1 174 8 87 15 164 15
170 0 6 -13 17 -30 24 -77 32 -131 136 -111 213 5 23 8 44 5 48 -2 4 -100 71
-217 149 -116 78 -221 151 -231 161 -19 17 -19 25 -7 196 14 203 39 499 46
558 5 38 3 41 -30 59 -101 55 -109 209 -14 277 28 20 46 24 100 24 l66 0 43
60 c24 33 80 112 125 175 167 236 253 357 308 433 l56 78 -24 37 c-39 60 -43
121 -11 185 36 73 88 109 166 115 51 4 66 0 106 -23 25 -15 55 -42 66 -62 12
-20 26 -32 34 -29 13 5 1138 286 1476 368 l176 43 11 37 c18 58 61 88 128 88
49 0 59 -4 89 -34z"/>
<path d="M2921 4564 c-24 -31 -25 -37 -10 -67 23 -43 66 -50 99 -17 39 39 11
110 -44 110 -15 0 -33 -11 -45 -26z"/>
<path d="M2705 4426 c-66 -18 -178 -46 -250 -64 -71 -17 -375 -93 -675 -168
-300 -75 -557 -138 -572 -141 -16 -3 -28 -11 -28 -17 0 -12 58 -27 390 -101
91 -20 239 -54 330 -75 91 -20 239 -54 330 -75 91 -21 227 -52 302 -70 l137
-32 23 36 c16 25 44 46 88 68 l65 32 17 128 c9 70 24 201 33 290 l17 162 -34
30 c-18 17 -37 30 -43 30 -5 0 -64 -15 -130 -33z"/>
<path d="M3046 4421 c-10 -11 -27 -22 -40 -25 -23 -6 -25 -16 -85 -534 l-8
-62 43 -25 c102 -60 126 -206 48 -295 -11 -13 -2 -31 57 -120 38 -58 74 -105
80 -105 6 0 235 149 509 330 471 312 498 331 492 355 -3 14 -6 35 -5 46 1 25
15 17 -247 125 -506 207 -809 329 -819 329 -4 0 -16 -9 -25 -19z"/>
<path d="M912 4140 c-85 -52 -74 -177 18 -225 38 -20 63 -19 108 4 48 25 71
64 68 119 -5 100 -108 154 -194 102z"/>
<path d="M4235 4045 c-34 -33 -34 -93 -2 -131 19 -21 32 -27 66 -27 61 0 91
31 91 94 0 39 -4 51 -26 68 -38 30 -98 28 -129 -4z"/>
<path d="M1142 3921 l-21 -29 32 -44 c18 -23 109 -150 201 -281 167 -236 169
-238 200 -232 29 5 105 23 456 109 145 35 473 112 520 122 62 12 130 35 130
44 0 5 -26 14 -57 21 -32 6 -105 23 -163 36 -58 13 -143 33 -190 43 -47 10
-186 42 -310 70 -427 97 -575 130 -605 136 -16 3 -55 11 -86 19 -77 20 -82 19
-107 -14z"/>
<path d="M849 3788 c-25 -35 -146 -204 -268 -375 -194 -273 -221 -315 -211
-333 6 -11 12 -20 14 -20 10 0 203 43 261 59 38 10 106 26 151 36 l81 18 11
131 c14 155 34 433 36 496 2 67 -21 63 -75 -12z"/>
<path d="M1024 3843 c-24 -5 -21 14 -54 -353 -11 -124 -20 -241 -20 -261 l0
-36 47 8 c26 5 90 20 142 34 53 13 139 34 191 46 52 12 101 24 107 28 15 8
-362 542 -380 540 -7 -1 -22 -4 -33 -6z"/>
<path d="M3667 3516 c-257 -172 -472 -317 -478 -323 -8 -8 22 -61 102 -182 62
-94 115 -171 119 -171 4 0 36 39 72 88 78 104 334 449 432 582 79 108 214 289
229 308 5 6 6 12 1 11 -5 0 -219 -141 -477 -313z"/>
<path d="M4099 3646 c-73 -99 -212 -287 -308 -416 -96 -129 -212 -286 -258
-348 l-82 -113 111 -167 111 -167 57 3 c38 3 67 -1 87 -11 l29 -16 405 424
c269 283 403 430 401 442 -14 83 -13 102 3 132 l16 32 -42 57 c-24 31 -81 107
-128 167 -47 61 -95 122 -106 138 -19 25 -23 26 -57 16 -25 -6 -50 -7 -72 -1
l-33 10 -134 -182z"/>
<path d="M2804 3726 c-50 -22 -74 -61 -74 -119 0 -44 4 -53 39 -88 34 -34 44
-39 86 -39 42 0 52 5 86 39 34 33 39 45 39 82 0 24 -6 55 -13 68 -28 56 -106
83 -163 57z"/>
<path d="M2610 3514 c-30 -7 -125 -29 -210 -49 -168 -39 -276 -65 -500 -119
-80 -19 -187 -45 -238 -56 l-93 -22 17 -26 c15 -23 270 -384 366 -517 l29 -40
83 0 c72 0 89 -3 116 -23 17 -13 38 -21 46 -18 32 12 515 337 518 348 2 7 13
96 25 198 12 102 25 195 28 207 4 18 -2 25 -29 36 -19 8 -50 32 -69 54 l-34
40 -55 -13z"/>
<path d="M2898 3417 c-34 -8 -38 -12 -38 -42 0 -18 -9 -99 -20 -181 -11 -81
-18 -149 -16 -151 4 -5 242 153 248 164 3 4 -27 56 -66 114 l-71 105 -37 -9z"/>
<path d="M4735 3405 c-53 -52 -18 -135 57 -135 28 0 42 7 57 26 29 37 26 70
-8 105 -36 36 -73 37 -106 4z"/>
<path d="M1445 3238 c-22 -5 -103 -24 -180 -43 -77 -19 -182 -44 -232 -56 -71
-16 -93 -25 -93 -38 0 -9 -13 -159 -29 -334 -17 -175 -27 -324 -24 -330 4 -11
279 -266 388 -361 l45 -39 284 189 c269 178 284 190 278 214 -13 48 -5 108 22
154 l26 45 -215 303 c-119 167 -219 304 -223 304 -4 1 -25 -2 -47 -8z"/>
<path d="M4404 2898 c-170 -178 -353 -369 -407 -425 l-99 -102 13 -35 13 -36
277 0 277 0 26 98 c34 127 95 362 140 537 20 77 45 171 56 210 10 38 18 71 16
72 -2 2 -142 -142 -312 -319z"/>
<path d="M2965 3049 c-82 -55 -153 -107 -156 -117 -4 -9 -10 -51 -13 -92 -4
-41 -20 -181 -36 -310 -15 -129 -36 -300 -45 -380 -9 -80 -19 -152 -21 -161
-3 -10 3 -19 13 -22 10 -2 25 -8 34 -11 13 -6 51 39 165 194 82 111 219 296
305 413 l157 211 -120 180 c-66 100 -123 184 -127 188 -3 4 -73 -38 -156 -93z"/>
<path d="M755 3074 c-55 -14 -139 -34 -188 -44 -166 -36 -161 -34 -175 -85
l-12 -45 67 -63 c38 -35 135 -126 218 -201 l150 -138 6 31 c4 18 10 80 13 139
8 123 24 315 32 385 3 26 2 47 -3 46 -4 0 -53 -12 -108 -25z"/>
<path d="M169 3051 c-40 -41 -40 -91 0 -132 22 -21 39 -29 66 -29 51 0 95 44
95 95 0 51 -44 95 -95 95 -27 0 -44 -8 -66 -29z"/>
<path d="M2493 2735 l-233 -155 7 -60 c5 -51 2 -66 -21 -114 l-27 -55 140
-199 140 -199 61 16 c46 12 62 21 65 36 2 11 16 117 30 235 14 118 37 308 51
422 15 113 25 211 23 217 -2 6 -109 -59 -236 -144z"/>
<path d="M295 2833 c-16 -8 -31 -17 -33 -18 -4 -3 -51 -513 -58 -635 l-7 -105
220 -149 220 -148 37 25 c20 14 50 28 66 32 29 6 30 9 30 58 0 29 10 156 21
282 l22 230 -69 66 c-103 99 -405 374 -412 376 -4 1 -20 -5 -37 -14z"/>
<path d="M3108 2308 l-298 -402 21 -22 21 -22 236 115 c131 64 292 142 360
175 l122 59 0 53 c0 40 6 62 25 90 l25 36 -106 160 c-58 88 -106 160 -107 160
-1 0 -136 -181 -299 -402z"/>
<path d="M1991 2594 c-91 -76 -37 -224 81 -224 74 0 128 53 128 125 0 78 -48
125 -129 125 -39 0 -56 -6 -80 -26z"/>
<path d="M3683 2350 c-46 -27 -62 -84 -38 -134 56 -118 235 -61 211 68 -14 75
-103 109 -173 66z"/>
<path d="M1646 2174 c-231 -154 -276 -188 -265 -198 8 -7 102 -93 209 -191
107 -98 211 -194 231 -212 35 -33 36 -33 72 -18 65 27 150 13 202 -34 20 -18
23 -17 151 46 l131 65 -9 39 c-15 56 -2 119 37 184 19 32 35 59 35 62 0 2 -33
50 -73 106 -40 56 -104 145 -141 199 -64 89 -71 96 -93 87 -56 -21 -150 -3
-182 34 -7 10 -16 17 -20 16 -3 0 -131 -84 -285 -185z"/>
<path d="M871 2289 c-1 -29 -11 -142 -21 -253 -10 -110 -18 -201 -17 -202 1 0
23 -13 49 -27 l47 -27 160 105 c89 58 161 109 161 113 0 9 -354 335 -368 340
-5 1 -9 -21 -11 -49z"/>
<path d="M3240 1975 c-301 -147 -355 -176 -354 -194 0 -12 1 -36 2 -55 l2 -34
133 -31 c72 -18 169 -41 215 -52 l82 -19 195 126 195 126 0 119 0 118 -34 16
c-19 9 -42 25 -52 36 -9 10 -20 19 -23 19 -3 -1 -166 -79 -361 -175z"/>
<path d="M1138 1835 l-174 -115 10 -44 10 -44 76 -16 c41 -8 154 -32 250 -52
389 -81 491 -100 496 -92 8 13 -1 23 -258 259 l-237 219 -173 -115z"/>
<path d="M2539 1890 c-170 -90 -126 -336 64 -367 45 -7 110 12 147 44 78 65
93 186 33 260 -63 80 -164 105 -244 63z"/>
<path d="M735 1760 c-11 -4 -30 -19 -43 -32 -97 -105 22 -268 148 -203 47 24
70 62 70 115 0 92 -92 155 -175 120z"/>
<path d="M2275 1504 l-130 -64 -2 -49 c-1 -27 -8 -62 -17 -79 -19 -36 -69 -80
-102 -88 l-24 -6 0 -392 0 -391 96 205 c53 113 106 230 119 260 13 30 76 168
140 305 65 138 119 259 122 270 3 14 -8 31 -34 56 l-38 37 -130 -64z"/>
<path d="M949 1533 c-18 -34 -86 -83 -115 -83 -13 0 -25 -3 -28 -8 -6 -10 -30
-291 -25 -296 2 -2 112 -16 244 -31 l240 -28 263 129 c243 120 263 131 260
153 -3 27 -12 29 -413 111 -88 17 -209 43 -270 56 -136 30 -138 30 -156 -3z"/>
<path d="M1923 1495 c-34 -15 -73 -67 -73 -98 0 -56 60 -117 115 -117 34 0 82
25 95 49 15 30 12 104 -6 130 -15 21 -70 52 -91 51 -4 -1 -23 -7 -40 -15z"/>
</g>
</svg>
