<?xml version="1.0" standalone="no"?>
<!DOCTYPE svg PUBLIC "-//W3C//DTD SVG 20010904//EN"
 "http://www.w3.org/TR/2001/REC-SVG-20010904/DTD/svg10.dtd">
<svg version="1.0" xmlns="http://www.w3.org/2000/svg"
 width="580.000000pt" height="580.000000pt" viewBox="0 0 580.000000 580.000000"
 preserveAspectRatio="xMidYMid meet">

<g transform="translate(0.000000,580.000000) scale(0.100000,-0.100000)"
fill="#000000" stroke="none">
<path d="M3355 5410 c-32 -21 -65 -73 -65 -102 0 -10 -1 -18 -2 -18 -2 -1
-433 -108 -958 -238 l-954 -238 -31 41 c-83 108 -228 123 -329 34 -57 -51 -80
-108 -74 -188 3 -43 12 -71 32 -101 l27 -41 -306 -429 -307 -429 -43 6 c-93
12 -169 -29 -206 -112 -38 -84 -10 -176 71 -230 l45 -30 -36 -440 c-21 -242
-34 -445 -30 -452 3 -7 125 -93 271 -192 164 -111 264 -184 261 -193 -31 -115
15 -230 112 -280 23 -11 43 -21 44 -22 1 -1 -4 -76 -12 -167 -20 -226 -20
-237 8 -249 12 -5 159 -23 327 -41 l305 -31 309 151 308 151 32 -27 c17 -14
46 -32 64 -40 l32 -13 0 -544 c0 -585 -1 -572 51 -564 18 2 59 86 255 513 129
281 272 593 319 695 l85 185 77 -3 c54 -3 88 1 121 14 53 20 122 80 154 133
12 20 22 37 23 39 1 1 120 -25 264 -58 l261 -60 238 151 c130 84 245 159 255
167 15 13 17 35 17 173 l0 157 29 7 c41 9 106 68 124 113 l16 39 343 7 c188 4
346 10 350 14 3 4 68 243 143 532 74 289 140 534 145 546 6 15 21 23 49 28 51
8 106 61 121 116 29 109 -50 215 -159 213 -25 0 -52 -2 -60 -4 -9 -3 -78 78
-184 214 l-169 218 21 49 c25 58 26 98 6 148 -21 49 -52 81 -100 103 -70 32
-149 18 -207 -38 l-27 -26 -610 249 c-602 246 -611 249 -611 277 0 38 -23 79
-60 111 -41 34 -128 37 -175 6z m129 -71 c36 -28 36 -80 0 -108 -15 -12 -34
-21 -44 -21 -34 0 -70 39 -70 75 0 36 36 75 70 75 10 0 29 -9 44 -21z m-157
-153 c12 -13 29 -28 38 -33 15 -9 14 -35 -24 -348 -23 -186 -42 -339 -44 -340
-1 -1 -22 -7 -47 -14 -55 -16 -106 -53 -131 -96 l-19 -31 -832 188 c-458 103
-843 190 -855 193 -13 3 -23 12 -23 19 0 10 47 25 153 51 83 20 510 126 947
235 437 109 800 199 806 199 6 1 20 -10 31 -23z m845 -242 c332 -136 603 -247
604 -248 1 0 4 -26 7 -56 l6 -55 -565 -375 c-311 -206 -571 -378 -579 -382 -9
-6 -37 29 -94 116 l-81 124 25 38 c51 76 56 161 12 239 -20 35 -88 97 -118
107 -9 3 -3 81 25 308 48 402 44 380 66 380 11 0 32 11 47 25 15 13 31 25 35
25 3 0 278 -111 610 -246z m-2942 -92 c109 -54 106 -213 -4 -263 -52 -23 -71
-23 -123 1 -110 49 -112 208 -3 262 19 10 49 18 65 18 17 0 46 -8 65 -18z
m3818 -115 c16 -16 26 -40 29 -71 5 -42 3 -48 -30 -81 -29 -29 -42 -35 -77
-35 -89 0 -143 106 -89 174 12 15 31 32 43 37 35 15 97 3 124 -24z m-2820
-297 c463 -104 843 -190 847 -190 16 0 1 -30 -17 -35 -587 -140 -1246 -295
-1259 -295 -11 0 -98 114 -243 319 l-226 319 21 36 c11 20 24 36 28 36 4 0
386 -85 849 -190z m-1125 63 c5 -10 -57 -761 -63 -766 -3 -2 -68 -18 -145 -36
-77 -18 -202 -48 -277 -66 l-137 -32 -16 23 c-15 24 -9 34 291 454 291 407
329 454 347 423z m381 -299 c119 -168 216 -308 214 -309 -4 -4 -551 -135 -564
-135 -6 0 3 157 21 367 l30 367 25 7 c14 4 32 7 41 8 10 1 97 -113 233 -305z
m2889 -287 c-230 -311 -421 -565 -425 -564 -8 2 -270 398 -266 402 24 20 1103
733 1106 731 1 -2 -185 -258 -415 -569z m639 560 c24 6 43 11 44 10 0 -1 76
-100 168 -221 l168 -219 -17 -37 c-17 -38 -18 -115 -1 -152 6 -13 -93 -122
-445 -490 -248 -260 -458 -479 -464 -486 -10 -12 -22 -11 -68 4 -43 13 -65 15
-99 8 l-43 -10 -127 191 c-71 104 -128 194 -128 198 0 5 201 280 446 611 l446
603 39 -11 c28 -7 51 -7 81 1z m-1621 -120 c39 -26 69 -79 69 -122 0 -110
-133 -183 -228 -125 -34 21 -72 87 -72 125 0 38 38 104 72 125 46 28 115 27
159 -3z m-259 -257 c15 -22 46 -49 69 -61 l42 -21 -6 -65 c-4 -36 -16 -147
-28 -248 l-22 -184 -302 -201 -302 -201 -38 25 c-58 40 -110 51 -175 37 -30
-6 -57 -7 -61 -3 -23 27 -470 664 -467 666 6 6 1224 294 1243 295 12 0 30 -15
47 -39z m2437 -84 c27 -14 51 -53 51 -82 0 -32 -31 -73 -63 -83 -96 -32 -164
83 -89 150 36 32 60 36 101 15z m-2081 -118 l81 -122 -146 -98 c-81 -53 -148
-96 -149 -95 -1 1 9 88 22 192 13 105 23 200 24 212 0 14 8 23 23 26 61 12 61
11 145 -115z m-1503 -400 c126 -178 238 -335 248 -350 19 -26 19 -27 0 -55
-40 -57 -54 -141 -34 -196 9 -24 -3 -33 -315 -241 -178 -119 -328 -216 -332
-216 -7 0 -408 363 -479 433 l-22 22 33 388 c18 213 35 388 37 390 7 6 594
145 615 146 16 1 69 -67 249 -321z m3321 -253 l-133 -510 -316 -3 -317 -2 -15
37 c-9 20 -14 42 -12 47 10 26 922 968 924 955 2 -8 -57 -243 -131 -524z
m-1413 36 c1 -4 -155 -219 -346 -478 l-349 -471 -31 13 c-18 7 -33 21 -35 32
-3 22 126 1094 133 1101 3 3 82 56 177 118 l172 112 138 -210 c77 -116 140
-214 141 -217z m-2859 337 c-2 -18 -15 -172 -29 -343 -14 -170 -27 -310 -28
-311 -2 -1 -316 286 -445 408 l-53 50 13 53 12 52 250 61 c138 33 259 61 268
61 13 1 16 -6 12 -31z m-648 -22 c36 -36 43 -71 24 -120 -11 -30 -65 -66 -98
-66 -36 0 -80 27 -97 60 -25 49 -19 88 19 126 28 28 42 34 76 34 34 0 48 -6
76 -34z m2784 -198 c0 -7 -27 -236 -60 -508 -33 -272 -60 -499 -60 -505 0 -12
-142 -48 -151 -37 -3 4 -77 107 -163 229 l-157 222 28 42 c25 39 28 51 28 131
l0 88 260 174 c143 96 263 175 268 175 4 1 7 -5 7 -11z m-2529 -234 c118 -109
240 -222 272 -252 l58 -54 -26 -317 c-14 -174 -28 -321 -30 -327 -2 -6 -18
-14 -36 -18 -19 -3 -51 -18 -72 -32 l-38 -25 -192 129 c-340 229 -315 209
-311 251 3 20 18 205 34 411 17 206 31 381 33 389 2 12 53 37 83 40 6 0 108
-87 225 -195z m3429 -146 c102 -156 117 -185 106 -198 -29 -33 -46 -82 -46
-133 l0 -54 -197 -95 c-109 -53 -295 -143 -414 -201 l-217 -105 -20 27 -20 27
170 230 c450 606 508 684 513 684 3 0 59 -82 125 -182z m-1590 74 c96 -48 109
-189 22 -250 -67 -48 -170 -29 -212 40 -58 95 14 228 125 228 17 0 46 -8 65
-18z m1911 -287 c93 -49 88 -191 -8 -231 -50 -21 -99 -10 -140 31 -28 28 -33
40 -33 82 0 100 95 162 181 118z m-2093 -36 c52 -32 114 -41 183 -26 l35 8
155 -217 c84 -120 157 -223 161 -230 5 -7 -6 -33 -27 -64 -45 -67 -58 -119
-53 -205 l5 -70 -150 -73 -150 -73 -26 24 c-60 57 -144 73 -218 42 -19 -8 -39
-15 -43 -15 -5 0 -131 113 -282 252 -150 138 -275 252 -277 254 -3 3 628 423
636 424 1 0 24 -14 51 -31z m-994 -214 c96 -88 175 -162 175 -165 0 -3 -84
-61 -186 -129 -153 -101 -190 -121 -202 -112 -9 6 -34 20 -56 31 l-41 19 23
263 c12 145 22 278 23 297 l0 33 45 -38 c24 -22 123 -111 219 -199z m2904 -24
c20 -16 47 -32 60 -36 22 -6 23 -8 20 -148 l-3 -141 -145 -93 c-80 -52 -179
-115 -220 -141 l-75 -48 -245 56 -245 57 -7 59 c-3 32 -3 62 0 66 9 9 804 398
815 398 5 0 25 -13 45 -29z m-2380 -461 c155 -143 282 -267 282 -275 0 -8 -6
-15 -14 -15 -15 0 -929 189 -932 193 -1 1 -4 25 -7 52 l-7 50 193 127 c105 71
195 128 198 128 3 0 132 -117 287 -260z m1323 192 c74 -38 111 -93 117 -171 5
-71 -10 -121 -51 -167 -66 -76 -178 -100 -263 -56 -87 44 -129 122 -122 223 6
79 43 134 117 172 73 36 131 36 202 -1z m-2129 -163 c87 -62 75 -203 -22 -251
-67 -34 -143 -13 -187 52 -89 129 80 290 209 199z m1834 -363 c-372 -813 -510
-1113 -517 -1121 -5 -5 -9 187 -9 433 l0 442 38 15 c81 34 136 120 130 201
l-3 44 150 74 150 74 47 -45 46 -46 -32 -71z m-1251 64 c242 -50 450 -95 463
-101 17 -7 23 -16 20 -35 -3 -24 -32 -40 -302 -171 l-299 -145 -269 29 c-148
15 -274 31 -279 34 -12 7 7 291 22 327 4 12 16 22 24 22 42 0 155 88 155 120
0 6 6 10 13 10 6 0 210 -40 452 -90z m773 -14 c34 -32 37 -38 37 -91 0 -53 -3
-59 -37 -91 -30 -27 -46 -34 -78 -34 -50 0 -91 20 -115 57 -21 32 -24 98 -6
131 19 35 70 62 119 62 34 0 49 -6 80 -34z"/>
</g>
</svg>
