<?xml version="1.0" standalone="no"?>
<!DOCTYPE svg PUBLIC "-//W3C//DTD SVG 20010904//EN"
 "http://www.w3.org/TR/2001/REC-SVG-20010904/DTD/svg10.dtd">
<svg version="1.0" xmlns="http://www.w3.org/2000/svg"
 width="573.000000pt" height="573.000000pt" viewBox="0 0 573.000000 573.000000"
 preserveAspectRatio="xMidYMid meet">

<g transform="translate(0.000000,573.000000) scale(0.100000,-0.100000)"
fill="#000000" stroke="none">
<path d="M0 2865 l0 -2865 2865 0 2865 0 0 2865 0 2865 -2865 0 -2865 0 0
-2865z m3477 2445 c41 -25 63 -59 70 -108 l5 -39 592 -241 c325 -133 599 -244
608 -248 12 -4 30 4 53 25 81 70 200 62 269 -19 50 -60 56 -148 16 -215 l-18
-30 170 -219 169 -219 72 -1 c57 -1 78 -6 103 -23 65 -46 85 -158 41 -224 -29
-43 -82 -79 -117 -79 -26 0 -29 -5 -48 -77 -12 -43 -76 -287 -142 -543 -67
-255 -126 -470 -132 -477 -8 -10 -63 -13 -233 -13 -122 0 -276 -3 -343 -7
l-121 -6 -7 -30 c-8 -38 -72 -102 -118 -117 l-36 -11 -2 -162 -3 -162 -252
-161 c-246 -158 -254 -162 -290 -153 -21 4 -136 31 -256 59 -120 27 -222 50
-227 50 -5 0 -18 -17 -29 -39 -28 -53 -103 -117 -162 -136 -33 -11 -73 -16
-120 -13 l-71 3 -200 -435 c-473 -1033 -438 -961 -467 -958 l-26 3 -3 551 -2
552 -56 27 c-30 15 -58 33 -61 41 -3 8 -9 14 -13 14 -5 0 -148 -68 -318 -150
l-309 -151 -317 34 c-175 19 -322 39 -328 45 -10 10 -3 150 18 353 l6 56 -47
23 c-99 48 -143 157 -111 275 5 17 -35 47 -264 200 l-269 180 -1 45 c0 43 54
715 65 812 6 47 5 47 -34 67 -73 38 -114 129 -92 209 25 90 110 147 212 140
l53 -3 268 375 c147 206 284 398 303 426 l35 51 -30 58 c-46 87 -38 177 22
250 98 118 278 103 368 -32 l15 -22 953 237 954 237 13 38 c15 43 49 85 80 97
37 16 109 11 142 -10z"/>
<path d="M3362 5253 c-7 -3 -19 -18 -28 -35 -39 -75 57 -146 114 -85 57 60 -8
151 -86 120z"/>
<path d="M2292 4873 c-773 -193 -943 -238 -940 -251 2 -12 187 -57 828 -202
454 -102 837 -189 851 -193 23 -6 30 -1 53 33 27 42 91 84 143 95 39 8 33 -21
79 371 l37 311 -39 36 c-22 20 -46 36 -54 36 -8 0 -439 -106 -958 -236z"/>
<path d="M3501 5076 c-7 -8 -28 -21 -47 -28 -26 -9 -35 -19 -39 -42 -9 -51
-75 -609 -75 -633 0 -16 11 -28 40 -43 112 -57 147 -212 74 -323 l-25 -39 80
-121 c43 -67 83 -122 88 -122 5 0 266 171 581 379 l573 380 -7 55 c-3 31 -7
57 -9 59 -4 5 -1181 485 -1201 489 -11 3 -26 -2 -33 -11z"/>
<path d="M1050 4748 c-54 -37 -74 -72 -74 -128 0 -146 190 -203 271 -81 29 44
31 113 3 159 -43 70 -136 93 -200 50z"/>
<path d="M4854 4636 c-28 -28 -34 -42 -34 -76 0 -34 6 -48 34 -76 28 -28 42
-34 76 -34 34 0 48 6 76 34 28 28 34 42 34 76 0 34 -6 48 -34 76 -28 28 -42
34 -76 34 -34 0 -48 -6 -76 -34z"/>
<path d="M1310 4495 c-12 -20 -18 -40 -14 -47 4 -7 107 -152 227 -323 121
-170 221 -311 222 -312 0 -1 293 67 650 152 357 85 651 155 652 155 2 0 3 7 3
15 0 8 -2 15 -5 15 -4 0 -384 86 -847 190 -463 105 -847 190 -854 190 -7 0
-22 -16 -34 -35z"/>
<path d="M720 3990 c-168 -237 -306 -434 -307 -438 -2 -4 5 -17 15 -29 l17
-22 280 67 280 67 32 380 c30 352 31 381 16 393 -9 6 -19 12 -22 12 -3 -1
-143 -194 -311 -430z"/>
<path d="M1178 4407 c-29 -8 -38 -16 -38 -32 0 -26 -48 -605 -55 -667 -5 -39
-3 -48 10 -48 21 0 556 127 562 134 6 5 -429 626 -437 624 -3 0 -22 -5 -42
-11z"/>
<path d="M4203 4031 c-303 -201 -555 -369 -559 -373 -8 -9 256 -410 267 -406
9 4 851 1139 847 1143 -2 1 -251 -163 -555 -364z"/>
<path d="M4413 3797 c-241 -325 -443 -598 -449 -607 -10 -13 11 -50 117 -210
95 -144 133 -194 146 -192 51 8 122 3 149 -11 l31 -16 464 486 c259 272 463
493 462 502 -1 9 -5 37 -9 64 -5 34 -2 60 11 92 l17 45 -163 212 c-89 117
-165 216 -168 220 -3 4 -25 2 -49 -4 -29 -7 -54 -7 -82 0 l-39 10 -438 -591z"/>
<path d="M3227 4276 c-52 -19 -85 -52 -98 -97 -33 -108 66 -214 176 -189 97
22 146 141 93 220 -46 66 -105 89 -171 66z"/>
<path d="M2540 3924 c-283 -68 -566 -135 -628 -150 -75 -17 -112 -30 -109 -38
5 -12 452 -643 467 -660 4 -4 30 -3 57 2 60 13 123 1 176 -34 l38 -25 292 192
c161 105 297 196 304 203 6 6 23 109 38 231 14 121 28 231 31 245 4 21 -2 28
-41 49 -26 14 -60 44 -77 68 -17 24 -32 43 -32 42 -1 -1 -233 -57 -516 -125z"/>
<path d="M3318 3918 c-21 -6 -38 -15 -38 -21 0 -7 -11 -102 -25 -211 -13 -110
-23 -202 -21 -204 2 -2 70 40 150 94 l146 97 -16 26 c-64 102 -150 231 -154
230 -3 -1 -22 -6 -42 -11z"/>
<path d="M5441 3916 c-26 -15 -50 -51 -51 -79 0 -32 28 -74 59 -87 96 -39 175
78 102 151 -32 32 -70 37 -110 15z"/>
<path d="M1370 3646 l-295 -71 -26 -315 c-15 -173 -30 -349 -34 -391 l-6 -76
251 -231 250 -232 330 220 329 219 -11 38 c-14 51 -3 115 28 172 l27 46 -245
345 c-221 310 -248 345 -274 347 -16 1 -162 -31 -324 -71z"/>
<path d="M4928 3200 l-467 -490 14 -27 c8 -16 15 -34 15 -41 0 -10 68 -12 322
-10 l323 3 132 505 c72 278 134 515 138 528 3 12 2 22 -2 21 -5 0 -218 -220
-475 -489z"/>
<path d="M3395 3494 c-132 -89 -172 -120 -177 -141 -6 -21 -118 -944 -131
-1072 -2 -19 5 -26 35 -37 l38 -13 341 462 c188 254 346 467 351 474 6 8 -38
83 -134 227 -79 118 -145 215 -148 215 -3 0 -81 -52 -175 -115z"/>
<path d="M905 3535 c-27 -7 -138 -34 -245 -59 l-195 -47 -16 -53 -16 -54 251
-230 c138 -127 252 -229 254 -227 2 1 14 133 27 291 13 159 26 313 30 342 5
49 4 52 -17 51 -13 0 -45 -7 -73 -14z"/>
<path d="M204 3512 c-30 -24 -44 -55 -44 -97 0 -55 53 -105 110 -105 57 0 110
50 110 105 0 72 -41 115 -110 115 -28 0 -53 -7 -66 -18z"/>
<path d="M2848 3132 c-199 -132 -266 -181 -262 -192 4 -8 9 -38 11 -67 4 -42
0 -62 -23 -110 -15 -32 -28 -63 -27 -69 0 -6 71 -111 158 -233 135 -189 161
-222 179 -217 12 2 44 10 71 17 28 6 51 12 53 14 3 3 122 989 122 1015 0 11
-3 20 -7 19 -5 0 -128 -80 -275 -177z"/>
<path d="M350 3255 c-14 -8 -33 -14 -42 -15 -10 0 -18 -8 -18 -17 0 -10 -16
-202 -34 -427 -19 -225 -33 -412 -31 -415 2 -4 115 -82 252 -174 l249 -168 58
30 c32 17 67 31 77 31 12 0 19 7 19 18 0 10 11 152 25 317 14 165 25 307 23
316 -2 13 -541 520 -551 519 -1 -1 -13 -7 -27 -15z"/>
<path d="M3569 2658 c-184 -248 -337 -456 -341 -462 -4 -7 3 -24 15 -39 l22
-27 409 199 c225 110 411 203 414 206 3 3 5 25 3 49 -2 45 18 107 45 137 14
16 5 33 -109 203 l-123 186 -335 -452z"/>
<path d="M2302 2990 c-71 -44 -95 -143 -49 -211 81 -122 271 -65 271 81 0 113
-127 188 -222 130z"/>
<path d="M4223 2700 c-44 -29 -69 -96 -54 -143 48 -144 251 -116 251 34 0 42
-5 55 -33 85 -28 31 -41 37 -83 41 -38 3 -56 -1 -81 -17z"/>
<path d="M1881 2488 l-314 -210 24 -22 c13 -13 140 -130 281 -260 255 -234
258 -237 282 -221 33 22 116 30 160 15 21 -7 53 -25 71 -41 l33 -29 151 72
151 71 -6 63 c-8 80 9 151 52 214 19 27 34 52 34 54 0 3 -71 105 -159 228
l-159 223 -94 0 c-87 0 -98 2 -134 28 -22 15 -44 27 -50 26 -5 0 -150 -95
-323 -211z"/>
<path d="M1000 2682 c0 -18 -40 -489 -45 -534 -5 -46 -5 -48 27 -62 18 -8 45
-22 59 -32 25 -16 26 -16 212 107 102 68 185 127 184 131 -3 8 -426 398 -432
398 -3 0 -5 -4 -5 -8z"/>
<path d="M3720 2269 c-223 -109 -408 -200 -412 -201 -4 -2 -5 -32 -2 -68 l6
-65 247 -57 246 -56 228 145 227 146 0 136 0 137 -36 13 c-19 7 -50 25 -67 40
l-32 28 -405 -198z"/>
<path d="M1296 2100 c-191 -126 -196 -130 -186 -155 6 -15 10 -37 10 -50 0
-17 7 -26 23 -30 101 -23 893 -185 907 -185 10 0 20 6 23 13 5 12 -555 537
-573 537 -4 0 -96 -58 -204 -130z"/>
<path d="M2925 2176 c-134 -59 -181 -219 -98 -339 42 -61 105 -92 183 -92 72
1 110 16 157 64 113 113 74 306 -74 368 -41 17 -129 16 -168 -1z"/>
<path d="M830 2013 c-103 -54 -108 -202 -8 -263 95 -58 222 17 222 130 0 109
-118 183 -214 133z"/>
<path d="M2602 1724 c-153 -73 -154 -74 -147 -102 16 -75 -47 -185 -125 -216
l-40 -16 0 -447 c1 -380 3 -444 14 -423 29 54 548 1191 544 1193 -2 1 -24 21
-48 44 l-45 41 -153 -74z"/>
<path d="M1088 1763 c-27 -46 -64 -75 -120 -94 l-53 -18 -14 -160 c-7 -88 -11
-167 -8 -174 3 -9 83 -21 281 -42 l276 -29 297 145 c291 142 298 146 301 177
3 26 -1 32 -20 37 -96 22 -893 185 -907 185 -9 0 -24 -12 -33 -27z"/>
<path d="M2216 1720 c-99 -30 -124 -158 -45 -225 36 -30 105 -34 149 -9 86 52
79 183 -13 225 -47 21 -50 21 -91 9z"/>
</g>
</svg>
